<?xml version="1.0" encoding="utf-8"?>
<!-- Generator: Adobe Illustrator 17.0.0, SVG Export Plug-In . SVG Version: 6.00 Build 0)  -->
<!DOCTYPE svg PUBLIC "-//W3C//DTD SVG 1.1//EN" "http://www.w3.org/Graphics/SVG/1.1/DTD/svg11.dtd">
<svg version="1.1" id="icon" xmlns="http://www.w3.org/2000/svg" xmlns:xlink="http://www.w3.org/1999/xlink" x="0px" y="0px"
	 width="128px" height="128px" viewBox="0 0 128 128" enable-background="new 0 0 128 128" xml:space="preserve">
<polygon fill="#B9E3ED" points="6.421,87.529 12.786,81.166 36.12,83.287 34.705,93.186 28.342,98.135 "/>
<path fill="#324654" d="M28.341,100.135c-0.296,0-0.594-0.065-0.871-0.199L5.55,89.33c-0.583-0.282-0.993-0.829-1.101-1.468
	c-0.108-0.639,0.1-1.289,0.558-1.747l6.364-6.363c0.419-0.42,1.004-0.626,1.595-0.578l23.334,2.121
	c0.546,0.05,1.047,0.321,1.388,0.752c0.34,0.43,0.489,0.98,0.411,1.523l-1.415,9.899c-0.073,0.513-0.343,0.978-0.752,1.296
	l-6.364,4.949C29.212,99.993,28.778,100.135,28.341,100.135z M9.825,86.954l18.269,8.84l4.745-3.69l1.002-7.016l-20.305-1.846
	L9.825,86.954z"/>
<polygon fill="#B9E3ED" points="42.757,122.866 49.12,116.502 46.999,93.167 37.1,94.582 32.15,100.945 "/>
<path fill="#324654" d="M42.757,124.866c-0.111,0-0.222-0.009-0.333-0.028c-0.639-0.107-1.186-0.518-1.467-1.101L30.35,101.816
	c-0.331-0.685-0.246-1.498,0.222-2.099l4.949-6.363c0.318-0.409,0.783-0.679,1.295-0.752l9.899-1.415
	c0.547-0.076,1.094,0.07,1.524,0.411c0.43,0.34,0.702,0.842,0.751,1.388l2.121,23.335c0.054,0.591-0.158,1.175-0.577,1.595
	l-6.363,6.364C43.793,124.658,43.283,124.866,42.757,124.866z M34.492,101.192l8.84,18.271l3.712-3.713l-1.846-20.306l-7.016,1.003
	L34.492,101.192z"/>
<path fill="#B9E3ED" d="M39.463,36.479c-1.562,1.562-4.095,1.562-5.657,0l0,0c-1.562-1.563-1.562-4.096,0-5.657l8.485-8.485
	c1.562-1.562,4.095-1.562,5.657,0l0,0c1.562,1.563,1.562,4.095,0,5.657L39.463,36.479z"/>
<path fill="#324654" d="M36.635,39.65c-1.603,0-3.109-0.624-4.242-1.757c-2.34-2.34-2.339-6.146,0-8.485l8.485-8.485
	c1.133-1.133,2.64-1.757,4.242-1.757c1.603,0,3.109,0.624,4.243,1.757c2.339,2.34,2.339,6.146,0,8.485l-8.486,8.485
	C39.744,39.026,38.238,39.65,36.635,39.65z M45.12,23.166c-0.534,0-1.037,0.208-1.414,0.585l-8.485,8.485
	c-0.78,0.78-0.78,2.049,0,2.829c0.754,0.754,2.074,0.754,2.828,0l8.485-8.485c0.779-0.78,0.779-2.049,0-2.829
	C46.157,23.374,45.655,23.166,45.12,23.166z"/>
<path fill="#B9E3ED" d="M60.463,36.479c-1.562,1.562-4.095,1.562-5.657,0l0,0c-1.562-1.563-1.562-4.096,0-5.657l8.485-8.485
	c1.562-1.562,4.095-1.562,5.657,0l0,0c1.562,1.563,1.562,4.095,0,5.657L60.463,36.479z"/>
<path fill="#324654" d="M57.635,39.65c-1.603,0-3.109-0.624-4.242-1.757c-2.34-2.34-2.339-6.146,0-8.485l8.485-8.485
	c1.133-1.133,2.64-1.757,4.242-1.757c1.603,0,3.109,0.624,4.243,1.757c2.339,2.34,2.339,6.146,0,8.485l-8.486,8.485
	C60.744,39.026,59.238,39.65,57.635,39.65z M66.12,23.166c-0.534,0-1.037,0.208-1.414,0.585l-8.485,8.485
	c-0.78,0.78-0.78,2.049,0,2.829c0.754,0.754,2.074,0.754,2.828,0l8.485-8.485c0.779-0.78,0.779-2.049,0-2.829
	C67.157,23.374,66.655,23.166,66.12,23.166z"/>
<polygon fill="#B9E3ED" points="6.12,38.82 18.12,31.167 87.12,31.167 69.76,54.376 "/>
<path fill="#324654" d="M69.76,56.376c-0.158,0-0.317-0.019-0.475-0.058L5.645,40.762c-0.778-0.189-1.367-0.826-1.498-1.616
	c-0.131-0.79,0.223-1.582,0.897-2.013l12-7.653c0.321-0.205,0.695-0.314,1.076-0.314h69c0.757,0,1.449,0.428,1.788,1.104
	c0.339,0.677,0.267,1.487-0.186,2.094l-17.36,23.209C70.978,56.086,70.381,56.376,69.76,56.376z M11.143,37.989l57.808,14.13
	l14.176-18.952H18.704L11.143,37.989z"/>
<path fill="#B9E3ED" d="M96.807,87.823c-1.562,1.563-1.562,4.095,0,5.657l0,0c1.563,1.562,4.096,1.562,5.657,0l8.486-8.486
	c1.561-1.562,1.562-4.094,0-5.656l0,0c-1.563-1.562-4.094-1.563-5.657,0L96.807,87.823z"/>
<path fill="#324654" d="M99.636,96.651c-1.603,0-3.109-0.624-4.243-1.756c-2.339-2.341-2.339-6.147-0.001-8.486l8.485-8.485
	c1.133-1.134,2.64-1.758,4.242-1.758c1.603,0,3.109,0.624,4.243,1.757c2.339,2.34,2.339,6.146,0.002,8.485l-8.486,8.486
	C102.745,96.027,101.238,96.651,99.636,96.651z M108.12,80.166c-0.534,0-1.036,0.208-1.414,0.586l-8.485,8.485
	c-0.779,0.78-0.779,2.049,0.001,2.829c0.754,0.754,2.073,0.754,2.828,0l8.486-8.486c0.779-0.779,0.779-2.048-0.001-2.828
	C109.157,80.375,108.654,80.166,108.12,80.166z"/>
<path fill="#B9E3ED" d="M96.807,66.823c-1.562,1.563-1.562,4.095,0,5.656l0,0c1.562,1.563,4.095,1.563,5.657,0.001l8.485-8.485
	c1.562-1.563,1.562-4.096,0-5.657l0,0c-1.562-1.563-4.095-1.562-5.657,0L96.807,66.823z"/>
<path fill="#324654" d="M99.636,75.652L99.636,75.652c-1.604-0.001-3.11-0.625-4.244-1.759c-1.133-1.133-1.757-2.64-1.757-4.242
	c0-1.602,0.624-3.108,1.757-4.242l8.485-8.485c1.134-1.134,2.641-1.758,4.243-1.758c1.603,0,3.109,0.625,4.243,1.758
	c1.133,1.133,1.757,2.64,1.757,4.242c0,1.603-0.624,3.109-1.757,4.243l-8.485,8.485C102.746,75.027,101.239,75.652,99.636,75.652z
	 M108.121,59.166c-0.534,0-1.037,0.209-1.415,0.587l-8.484,8.484c-0.377,0.378-0.585,0.88-0.585,1.414
	c0,0.534,0.208,1.036,0.585,1.414c0.756,0.755,2.073,0.757,2.829,0.001l8.485-8.485c0.377-0.378,0.585-0.881,0.585-1.415
	c0-0.534-0.208-1.036-0.585-1.414C109.157,59.374,108.655,59.166,108.121,59.166z"/>
<polygon fill="#B9E3ED" points="94.465,121.167 103.12,109.167 103.12,40.166 78.91,57.526 "/>
<path fill="#324654" d="M94.465,123.167c-0.127,0-0.255-0.012-0.383-0.037c-0.766-0.149-1.374-0.731-1.56-1.488L76.967,58.001
	c-0.194-0.793,0.114-1.624,0.777-2.1l24.21-17.36c0.61-0.439,1.413-0.495,2.079-0.154c0.667,0.343,1.086,1.029,1.086,1.779
	l-0.001,69.001c0,0.42-0.132,0.829-0.378,1.17l-8.654,12C95.707,122.864,95.101,123.167,94.465,123.167z M81.174,58.364
	l14.205,58.117l5.741-7.96l0.001-64.46L81.174,58.364z"/>
<ellipse fill="#B8CBCD" cx="60.453" cy="114.98" rx="47.667" ry="10.186"/>
<path fill="#FFFFFF" d="M121.789,22.559c0.458-4.058,1.418-9.902-1.411-12.732C117.55,7,111.705,7.96,107.647,8.418
	c-4.782,0.539-10.769,6.526-14.095,9.852c-3.326,3.326-56.414,60.657-64.396,68.64c-7.982,7.982-4.237,18.379-4.237,18.379
	s10.396,3.745,18.379-4.237c7.982-7.981,65.313-61.07,68.639-64.396C115.263,33.329,121.25,27.341,121.789,22.559z"/>
<path fill="#324654" d="M30.776,108.166L30.776,108.166c-3.726,0-6.421-0.956-6.534-0.996c-0.561-0.202-1.002-0.643-1.204-1.204
	c-0.17-0.473-4.075-11.691,4.705-20.471c4.825-4.825,26.09-27.641,43.178-45.973c11.112-11.921,19.889-21.337,21.219-22.667
	c3.67-3.67,9.809-9.808,15.285-10.425l0.969-0.113c1.712-0.203,3.653-0.433,5.579-0.433c3.561,0,6.12,0.827,7.821,2.529
	c3.294,3.295,2.603,9.137,2.097,13.402l-0.113,0.968c-0.618,5.479-6.757,11.617-10.425,15.284
	c-1.33,1.33-10.746,10.107-22.668,21.22C72.352,76.375,49.538,97.64,44.712,102.465C40.001,107.176,34.533,108.166,30.776,108.166z
	 M26.53,103.667c0.913,0.22,2.428,0.499,4.246,0.499c4.366,0,8.103-1.524,11.109-4.529c4.875-4.875,27.718-26.167,46.072-43.275
	c11.422-10.646,21.287-19.841,22.567-21.121c2.862-2.862,8.817-8.816,9.279-12.905l0.115-0.989
	c0.409-3.452,0.969-8.181-0.954-10.104c-0.913-0.913-2.546-1.357-4.993-1.357c-1.689,0-3.506,0.215-5.108,0.405l-0.991,0.115
	c-4.085,0.461-10.04,6.414-12.902,9.275c-1.283,1.283-10.477,11.147-21.124,22.569c-17.108,18.355-38.4,41.198-43.275,46.073
	C24.848,94.046,25.903,101.129,26.53,103.667z"/>
<path fill="#B9E3ED" d="M39.12,89.167c0,0-20,5-21,21C32.12,109.167,38.12,97.167,39.12,89.167z"/>
<path fill="#324654" d="M18.12,112.167c-0.525,0-1.032-0.207-1.408-0.579c-0.41-0.406-0.625-0.97-0.588-1.546
	C17.203,92.78,37.76,87.445,38.635,87.226c0.639-0.16,1.317,0.006,1.811,0.443c0.494,0.438,0.74,1.091,0.658,1.745
	c-1.283,10.262-8.977,21.757-22.842,22.747C18.215,112.165,18.167,112.167,18.12,112.167z M36.479,92.159
	c-4.915,1.917-14.09,6.641-16.031,15.701C30.128,106.081,34.783,98.313,36.479,92.159z"/>
<path fill="#B9E3ED" d="M90.12,23.167c0,0,20.116-1.001,18.116,16.999c7-6,9.791-8.936,9.791-8.936s0.093-18.063-18.907-17.063
	C95.12,18.167,90.12,23.167,90.12,23.167z"/>
<path fill="#324654" d="M108.235,42.166c-0.319,0-0.64-0.076-0.935-0.232c-0.726-0.384-1.144-1.172-1.053-1.988
	c0.474-4.265-0.387-7.658-2.56-10.085c-4.007-4.477-11.537-4.703-13.006-4.703c-0.278,0-0.443,0.007-0.466,0.008
	c-0.82,0.02-1.59-0.436-1.923-1.19c-0.334-0.755-0.17-1.638,0.414-2.222l9-9c0.349-0.35,0.815-0.558,1.309-0.583
	c0.548-0.029,1.08-0.043,1.599-0.043c5.781,0,10.433,1.729,13.827,5.14c5.564,5.593,5.588,13.634,5.586,13.974
	c-0.002,0.51-0.2,0.999-0.551,1.368c-0.117,0.123-2.942,3.079-9.939,9.076C109.167,42.002,108.703,42.166,108.235,42.166z
	 M94.661,21.454c3.638,0.526,8.618,1.951,12.008,5.738c2.069,2.312,3.276,5.173,3.611,8.541c3.024-2.68,4.856-4.443,5.713-5.292
	c-0.229-3.12-1.986-14.314-15.379-14.314c-0.209,0-0.42,0.003-0.634,0.008L94.661,21.454z"/>
<path fill="#324654" d="M43.757,125.866c-0.153,0-0.306-0.012-0.459-0.035c-0.946-0.146-1.765-0.735-2.205-1.586l-7.521-14.526
	c-0.7-0.078-1.285-0.238-1.747-0.364c-0.016-0.004-0.032-0.009-0.048-0.013c-3.371,2.111-7.824,3.487-12.443,3.817
	c-0.86,0.063-1.711-0.252-2.326-0.861c-0.615-0.609-0.937-1.454-0.882-2.318c0.324-5.177,1.714-9.93,3.85-13.405L6.173,90.256
	c-0.893-0.408-1.53-1.229-1.704-2.196c-0.174-0.967,0.137-1.958,0.832-2.652l6.363-6.363c0.595-0.596,1.412-0.916,2.254-0.876
	l17.485,0.773c3.754-3.958,8.911-9.52,14.809-15.88c2.853-3.077,5.86-6.32,8.932-9.622L6.419,41.737
	c-1.14-0.273-2.016-1.186-2.243-2.337c-0.227-1.15,0.238-2.327,1.188-3.014l12-8.654c0.511-0.368,1.125-0.566,1.755-0.566h15.1
	l6.951-6.95c1.322-1.322,3.08-2.05,4.949-2.05c1.87,0,3.627,0.728,4.95,2.049c1.878,1.879,2.463,4.567,1.757,6.951h2.393l6.951-6.95
	c1.322-1.322,3.08-2.05,4.949-2.05c1.87,0,3.627,0.728,4.95,2.049c1.878,1.879,2.463,4.567,1.757,6.951h6.075
	c5.458-5.821,10.363-10.803,11.431-11.87c3.609-3.608,11.319-8.518,16.612-9.794c2.381-0.575,4.629-0.866,6.681-0.866
	c3.852,0,6.837,1.033,8.875,3.071c3.022,3.023,3.75,8.079,2.227,15.459c-0.606,2.938-2.396,6.326-5.056,9.579
	c-0.151,0.245-0.338,0.468-0.557,0.662c-1.792,2.104-3.67,3.983-5.056,5.368c-0.141,0.141-0.386,0.401-0.727,0.762
	c-1.28,1.354-3.829,4.046-7.212,7.259v7.659c0.641-0.19,1.313-0.289,2-0.289c1.87,0,3.628,0.728,4.95,2.051
	c2.729,2.729,2.729,7.169,0.001,9.899l-6.951,6.951l-0.001,2.388c0.641-0.19,1.313-0.289,2.001-0.289c1.869,0,3.627,0.729,4.95,2.05
	c2.729,2.73,2.729,7.17,0.001,9.899l-6.952,6.951v15.101c0,0.63-0.198,1.244-0.567,1.755l-8.654,12
	c-0.684,0.95-1.857,1.414-3.007,1.189c-1.148-0.224-2.062-1.095-2.34-2.232l-12.226-50.02
	c-11.716,10.939-22.572,21.14-28.791,27.053l1.574,17.319c0.081,0.887-0.237,1.763-0.866,2.393l-6.363,6.364
	C45.311,125.554,44.546,125.866,43.757,125.866z M35.371,103.667c1.104,0,2.141,0.611,2.663,1.621l6.501,12.557l2.47-2.471
	l-1.579-17.364c-0.083-0.911,0.255-1.812,0.917-2.442c6.607-6.3,19.809-18.699,33.633-31.591c0.779-0.726,1.884-0.985,2.905-0.68
	c1.02,0.305,1.802,1.127,2.055,2.162l11.898,48.679l4.284-5.939V92.824c0-0.796,0.316-1.559,0.879-2.121l7.83-7.83
	c0.389-0.39,0.389-1.024-0.001-1.414c-0.254-0.255-0.552-0.293-0.707-0.293c-0.155,0-0.453,0.038-0.709,0.294l-2.171,2.171
	c-0.859,0.858-2.149,1.114-3.27,0.65c-1.121-0.464-1.852-1.559-1.852-2.771l0.001-9.686c0-0.796,0.316-1.559,0.879-2.121
	l7.829-7.829c0.389-0.39,0.39-1.025,0-1.415c-0.255-0.255-0.553-0.293-0.708-0.293c-0.155,0-0.454,0.038-0.709,0.294l-2.17,2.171
	c-0.859,0.858-2.15,1.115-3.27,0.65c-1.121-0.464-1.852-1.558-1.852-2.771V45.5c0-0.831,0.345-1.625,0.952-2.192
	c3.722-3.477,6.545-6.461,7.901-7.895c0.395-0.417,0.679-0.717,0.843-0.88c1.362-1.362,3.227-3.228,4.915-5.234
	c0.022-0.026,0.045-0.052,0.068-0.077c0.007-0.009,0.014-0.018,0.021-0.026c2.108-2.521,3.615-5.228,4.03-7.242
	c1.4-6.786,0.229-9.181-0.594-10.004c-1.085-1.085-3.118-1.313-4.632-1.313c-1.556,0-3.38,0.242-5.274,0.698
	c-4.133,0.997-10.799,5.228-13.776,8.205c-1.11,1.109-6.43,6.514-12.178,12.674c-0.567,0.607-1.362,0.953-2.193,0.953H67.777
	c-1.213,0-2.307-0.73-2.771-1.852c-0.464-1.121-0.208-2.412,0.65-3.27l2.172-2.172c0.389-0.39,0.389-1.025-0.001-1.415
	c-0.254-0.254-0.552-0.292-0.707-0.292c-0.155,0-0.452,0.038-0.707,0.292l-7.829,7.829c-0.563,0.563-1.325,0.879-2.121,0.879h-9.686
	c-1.213,0-2.307-0.73-2.771-1.852c-0.464-1.121-0.208-2.412,0.65-3.27l2.172-2.172c0.389-0.39,0.389-1.025-0.001-1.415
	c-0.254-0.254-0.552-0.292-0.707-0.292c-0.155,0-0.452,0.038-0.707,0.292l-7.829,7.829c-0.563,0.563-1.325,0.879-2.121,0.879H20.089
	l-5.912,4.264l47.366,11.377c1.038,0.249,1.865,1.031,2.172,2.053c0.307,1.021,0.049,2.13-0.679,2.91
	c-4.278,4.587-8.497,9.138-12.424,13.372c-6.421,6.925-11.966,12.905-15.806,16.93c-0.598,0.627-1.425,0.96-2.303,0.926
	l-17.53-0.775l-2.377,2.376l13.096,5.995c1.226,0.561,1.925,1.869,1.714,3.196c-0.006,0.105-0.015,0.193-0.021,0.258
	c-0.07,0.695-0.381,1.345-0.879,1.835c-1.773,1.747-3.193,4.984-3.919,8.746c2.622-0.597,5.013-1.602,6.761-2.883
	c0.567-0.415,1.261-0.618,1.965-0.573c0.852,0.056,1.541,0.244,2.095,0.396c0.667,0.183,0.928,0.249,1.371,0.158
	C34.977,103.685,35.175,103.667,35.371,103.667z"/>
</svg>
