<?xml version="1.0" encoding="utf-8"?><svg version="1.1" id="Layer_1" xmlns="http://www.w3.org/2000/svg" xmlns:xlink="http://www.w3.org/1999/xlink" x="0px" y="0px" viewBox="0 0 122.88 122.88" style="enable-background:new 0 0 122.88 122.88" xml:space="preserve"><g><path d="M61.44,0c16.97,0,32.33,6.88,43.44,18c11.12,11.12,18,26.48,18,43.44c0,16.97-6.88,32.33-18,43.44 c-11.12,11.12-26.48,18-43.44,18S29.11,116,18,104.88C6.88,93.77,0,78.41,0,61.44C0,44.47,6.88,29.11,18,18 C29.11,6.88,44.47,0,61.44,0L61.44,0z M46.49,87.03c6,12.51,24.19,12.95,29.94,0.07c-1.57-1.59-2.73-3.28-3.88-4.97 c-0.19-0.28-0.38-0.55-0.57-0.83c-2.77,2.2-6.14,3.6-10.53,3.59c-4.73-0.01-8.29-1.82-11.21-4.49c-0.17-0.16-0.35-0.32-0.52-0.49 c-0.42,1.16-0.95,2.55-1.52,3.85C47.65,85.01,47.06,86.18,46.49,87.03L46.49,87.03z M92.66,107.83l1.36-14.48 c-5.03-0.98-10.42-2.04-15.99-5.25c-4.17,13.89-26.58,15.54-32.89,0.36c-5,2.52-10.09,3.96-15.89,4.85l1.97,15.17 c8.71,5.61,19.09,8.87,30.23,8.87C73,117.35,83.74,113.84,92.66,107.83L92.66,107.83z M16.56,94.79l0.24-0.14 c5.96-3.32,21.47-4.42,27.91-8.91c0.47-0.71,0.98-1.74,1.47-2.86c0.74-1.69,1.41-3.53,1.84-4.79c-1.8-2.12-3.34-4.51-4.82-6.87 l-4.88-7.76c-1.78-2.66-2.71-5.09-2.77-7.09c-0.03-0.94,0.13-1.79,0.48-2.54c0.36-0.79,0.92-1.44,1.68-1.95 c0.35-0.24,0.75-0.44,1.18-0.6c-0.32-4.21-0.43-9.51-0.23-13.95c0.1-1.05,0.31-2.11,0.6-3.16c1.25-4.45,4.37-8.04,8.24-10.5 c2.13-1.36,4.47-2.38,6.91-3.07c1.55-0.44-1.32-5.39,0.28-5.56c7.75-0.8,20.28,6.28,25.69,12.13c2.71,2.93,4.41,6.82,4.78,11.96 l-0.3,12.66v0c1.35,0.41,2.22,1.27,2.57,2.66c0.39,1.54-0.03,3.71-1.34,6.66l0,0c-0.02,0.05-0.05,0.11-0.08,0.16l-5.56,9.16 c-2.04,3.36-4.12,6.74-6.82,9.4c0.24,0.35,0.49,0.7,0.73,1.06c1.1,1.61,2.21,3.23,3.63,4.67c0.05,0.05,0.09,0.1,0.12,0.15 c6.4,4.52,21.98,5.62,27.96,8.95l0.24,0.14c6.93-9.31,11.03-20.85,11.03-33.35c0-15.44-6.26-29.42-16.38-39.53 C90.86,11.79,76.88,5.53,61.44,5.53c-15.44,0-29.42,6.26-39.53,16.38C11.79,32.02,5.53,46,5.53,61.44 C5.53,73.94,9.63,85.48,16.56,94.79L16.56,94.79z M41.71,53.54c-1.08,0.04-1.9,0.27-2.46,0.64c-0.32,0.21-0.55,0.49-0.7,0.81 c-0.17,0.36-0.24,0.8-0.23,1.31c0.04,1.48,0.82,3.42,2.32,5.66l0.02,0.03l0,0l4.88,7.76c1.96,3.11,4.01,6.28,6.56,8.61 c2.45,2.24,5.42,3.76,9.36,3.77c4.26,0.01,7.37-1.57,9.9-3.93c2.63-2.46,4.7-5.83,6.75-9.2l5.5-9.05c1.02-2.34,1.4-3.9,1.16-4.82 c-0.14-0.55-0.74-0.81-1.77-0.87c-0.22-0.01-0.44-0.01-0.67-0.01c-0.24,0.01-0.5,0.02-0.77,0.05c-0.15,0.01-0.29,0-0.42-0.03 c-0.49,0.03-0.99-0.01-1.51-0.08l1.88-8.33c-13.96,2.2-24.41-8.17-39.17-2.07l1.06,9.82C42.79,53.64,42.23,53.62,41.71,53.54 L41.71,53.54L41.71,53.54z"/></g></svg>