<?xml version="1.0" ?><svg viewBox="0 0 32 32" xmlns="http://www.w3.org/2000/svg"><defs><style>.cls-1{fill:#8c9eff;}.cls-2{fill:#5f7cf9;}.cls-3{fill:#4062ed;}</style></defs><title/><g id="Home"><path class="cls-1" d="M27,14.83V26a3,3,0,0,1-3,3H8a3,3,0,0,1-3-3V14.83a3,3,0,0,1,.88-2.12l8-8a3.06,3.06,0,0,1,4.24,0l8,8A3,3,0,0,1,27,14.83Z"/><path class="cls-2" d="M26.12,12.71l-8-8A3,3,0,0,0,16,3.85V29h8a3,3,0,0,0,3-3V14.83A3,3,0,0,0,26.12,12.71Z"/><path class="cls-2" d="M20,21v8H12V21a3,3,0,0,1,3-3h2A3,3,0,0,1,20,21Z"/><path class="cls-3" d="M20,21a3,3,0,0,0-3-3H16V29h4Z"/></g></svg>