<?xml version="1.0" encoding="iso-8859-1"?>
<!-- Generator: Adobe Illustrator 21.1.0, SVG Export Plug-In . SVG Version: 6.00 Build 0)  -->
<svg version="1.1" id="Layer_1_1_" xmlns="http://www.w3.org/2000/svg" xmlns:xlink="http://www.w3.org/1999/xlink" x="0px" y="0px"
	 viewBox="0 0 16 16" style="enable-background:new 0 0 16 16;" xml:space="preserve">
<path d="M1,9c0,3.866,3.134,7,7,7s7-3.134,7-7c0-3.866-3.134-7-7-7S1,5.134,1,9z M8,3c3.314,0,6,2.686,6,6s-2.686,6-6,6
	s-6-2.686-6-6S4.686,3,8,3z"/>
<rect x="6" width="4" height="1"/>
<rect x="13.5" y="1.5" transform="matrix(0.7071 -0.7071 0.7071 0.7071 2.3329 10.632)" width="1" height="2"/>
<path d="M8,4v5h5C13,6.239,10.761,4,8,4z"/>
</svg>
