<?xml version="1.0" encoding="UTF-8" standalone="no"?> <svg xmlns="http://www.w3.org/2000/svg" data-name="Layer 1" viewBox="0 0 32 32"><path fill="#58565d" d="M23.51953 9.50977a.5.5 0 0 1-.35352-.85352l1.34082-1.33984a.49995.49995 0 0 1 .707.707L23.873 9.36328A.49838.49838 0 0 1 23.51953 9.50977zM8.26855 9.53516A.49838.49838 0 0 1 7.915 9.38867L6.5498 8.02295a.49995.49995 0 1 1 .707-.707L8.62207 8.68164a.5.5 0 0 1-.35352.85352z"/><polyline fill="#58565d" points="15 6.54 15 4.5 17 4.5 17 6.54"/><rect width="5" height="3" x="13.5" y="1.5" fill="#8b8891" rx="1" ry="1"/><path fill="#58565d" d="M14.5,3.5v-1a1,1,0,0,1,1-1h-1a1,1,0,0,0-1,1v1a1,1,0,0,0,1,1h1A1,1,0,0,1,14.5,3.5Z"/><rect width="3.207" height="2.138" x="24.017" y="5.845" fill="#8b8891" rx=".5" ry=".5" transform="rotate(45 25.62 6.914)"/><path fill="#58565d" d="M25.08453,6.8894a.5.5,0,0,1,0-.70709l.6582-.6582-.14642-.14648a.5.5,0,0,0-.70709,0l-.80469.80469a.5.5,0,0,0,0,.70709l1.56055,1.56049a.5.5,0,0,0,.70709,0l.14642-.14642Z"/><rect width="3.207" height="2.138" x="4.544" y="5.845" fill="#8b8891" rx=".5" ry=".5" transform="rotate(135 6.148 6.914)"/><path fill="#58565d" d="M5.61163,7.64526a.5.5,0,0,1,0-.70709L7.0257,5.524l-.14642-.14642a.50008.50008,0,0,0-.70715,0L4.61163,6.93817a.5.5,0,0,0,0,.70709l.80463.80463a.5.5,0,0,0,.70709,0l.14648-.14642Z"/><circle cx="16" cy="19" r="12.5" fill="#3f6db4"/><path fill="#fff" d="M16,8.55723a10.5,10.5,0,1,0,10.5,10.5A10.50242,10.50242,0,0,0,16,8.55723Z"/><path fill="#e0e0e2" d="M6.5,19.05719a10.494,10.494,0,0,1,10-10.47473c-.16687-.00787-.33118-.02527-.5-.02527a10.5,10.5,0,1,0,0,21c.16882,0,.33313-.01733.5-.02521A10.48627,10.48627,0,0,1,6.5,19.05719Z"/><path fill="#3c3b41" d="M16 11a.49971.49971 0 0 1-.5-.5V8.55713a.5.5 0 0 1 1 0V10.5A.49971.49971 0 0 1 16 11zM16 30.05713a.49971.49971 0 0 1-.5-.5V27.5a.5.5 0 0 1 1 0v2.05713A.49971.49971 0 0 1 16 30.05713zM7.54492 19.45557H5.501a.5.5 0 1 1 0-1H7.54492a.5.5 0 0 1 0 1zM26.499 19.45557h-1.9541a.5.5 0 0 1 0-1H26.499a.5.5 0 0 1 0 1zM22.05078 13.50635a.5.5 0 0 1-.35352-.85352l1.374-1.37354a.49995.49995 0 0 1 .707.707l-1.374 1.37354A.49838.49838 0 0 1 22.05078 13.50635zM8.5752 26.98193a.5.5 0 0 1-.35352-.85352l1.45508-1.45459a.49995.49995 0 1 1 .707.707L8.92871 26.83545A.49838.49838 0 0 1 8.5752 26.98193zM10.09277 13.50635a.49838.49838 0 0 1-.35352-.14648L8.29492 11.91455a.49995.49995 0 0 1 .707-.707l1.44434 1.44531a.5.5 0 0 1-.35352.85352zM23.49609 26.90918a.49838.49838 0 0 1-.35352-.14648l-1.38184-1.38184a.49995.49995 0 0 1 .707-.707l1.38184 1.38184a.5.5 0 0 1-.35352.85352z"/><path fill="#3f6db4" d="M16,6.5A12.5,12.5,0,1,0,28.5,19,12.50453,12.50453,0,0,0,16,6.5Zm0,23.06a10.5,10.5,0,1,1,10.5-10.5A10.49872,10.49872,0,0,1,16,29.56Z"/><path fill="#1f53a4" d="M4.5,19a12.49477,12.49477,0,0,1,12-12.47473C16.33282,6.51862,16.16876,6.5,16,6.5a12.5,12.5,0,0,0,0,25c.16876,0,.33282-.01862.5-.02527A12.49477,12.49477,0,0,1,4.5,19Z"/><path fill="#3c3b41" d="M15.99414,18.9292h-.001a.50013.50013,0,0,1-.499-.50146l.01172-4.0127a.50034.50034,0,0,1,.5-.49854h.001a.50013.50013,0,0,1,.499.50146l-.01172,4.0127A.50034.50034,0,0,1,15.99414,18.9292Z"/><path fill="#3c3b41" d="M12.46,21.91992a.5.5,0,0,1-.293-.90527l3.26855-2.36279a.50008.50008,0,0,1,.58594.81055L12.75293,21.8252A.4999.4999,0,0,1,12.46,21.91992Z"/><circle cx="16" cy="19" r="1" fill="#3f6db4"/></svg>